<svg xmlns="http://www.w3.org/2000/svg" width="24" height="24" viewBox="0 0 24 24">
  <path fill="#2dbe64"
        d="M20.176 17.809H11.6V5.7h7.81c2.52 0 3.89 1.57 3.89 3.43 0 .834-.421 1.687-1.066 2.332.95.502 1.765 1.633 1.765 2.812 0 2.075-1.62 3.535-3.823 3.535m-5.583-2.436h5.176c.725 0 1.202-.536 1.202-1.195v-.02c0-.659-.477-1.195-1.202-1.195h-5.176zm0-4.846h4.428c.784 0 1.25-.536 1.25-1.196s-.437-1.195-1.25-1.195h-4.428zm-8.256 7.282H0V5.7h5.57c2.522 0 3.89 1.57 3.89 3.43 0 .834-.42 1.687-1.065 2.332.95.502 1.765 1.633 1.765 2.812 0 2.075-1.62 3.535-3.823 3.535m-3.344-2.436H5.93c.725 0 1.202-.536 1.202-1.195v-.02c0-.659-.477-1.195-1.202-1.195H2.993Zm0-4.846h2.189c.784 0 1.25-.536 1.25-1.196s-.437-1.195-1.25-1.195h-2.19Z"/>
</svg>
